<?xml version="1.0" encoding="UTF-8" standalone="no"?>
<!DOCTYPE svg PUBLIC "-//W3C//DTD SVG 1.1//EN" "http://www.w3.org/Graphics/SVG/1.1/DTD/svg11.dtd">
<svg class="favicon" width="100%" height="100%" viewBox="0 0 229 231" version="1.1" xmlns="http://www.w3.org/2000/svg" xmlns:xlink="http://www.w3.org/1999/xlink" xml:space="preserve">
    <style>
        path { fill: #0d0d0d; }
        @media (prefers-color-scheme: dark) {
        path { fill: #f4f4f4; }
        }
    </style>
    <g transform="matrix(1,0,0,1,-7769.44,-4139.44)">
        <g transform="matrix(1,0,0,1,34.7789,-69.2219)">
            <g transform="matrix(0.861065,0,0,0.861065,1225.96,780.471)">
                <g class="favicon__canvas" transform="matrix(1.16135,0,0,1.16135,-397.966,-1947.68)">
                    <path d="M6892.39,5270.3L6851.38,5270.3L6851.38,5105.27L7080.87,5105.27L7080.87,5270.3L7039.77,5270.3L6982.1,5205.66L7016.38,5205.66L7016.38,5169.62L6915.98,5169.62L6915.98,5205.66L6949.97,5205.66L6892.39,5270.3Z"/>
                </g>
                <g class="favicon__triangle--category" transform="matrix(0.779325,0,0,0.779325,4453.46,3880.1)">
                    <path d="M3984.79,476.347L4155.64,284.549L4326.79,476.347L3984.79,476.347Z"/>
                </g>
            </g>
        </g>
    </g>
</svg>
